<svg width="977" height="181" viewBox="0 0 977 181" fill="none" xmlns="http://www.w3.org/2000/svg">
<path d="M102.928 0.759539C110.291 -1.33097 118.888 1.57706 122.959 8.22232C128.217 16.2924 125.355 28.4384 116.747 32.9347C107.767 38.272 94.459 33.9274 91.295 23.6851C87.526 14.5289 93.3423 3.09531 102.928 0.759539Z" fill="#0085FF"/>
<path d="M750.82 0.677615C761.371 -2.52239 773.679 6.0382 773.12 17.3783C773.876 28.1813 762.802 37.1857 752.426 34.955C744.073 33.8338 737.454 25.8689 737.862 17.4251C737.652 9.69368 743.329 2.40608 750.82 0.677615Z" fill="#0085FF"/>
<path d="M317.452 7.92974C317.161 5.66404 319.709 4.76477 321.535 4.98667C330.237 5.03338 338.961 4.82316 347.662 5.09178C349.721 5.11514 350.361 7.40419 350.163 9.12098C350.163 46.9137 350.163 84.7181 350.163 122.522C350.035 129.296 350.477 136.093 349.838 142.844C340.345 143.708 330.713 143.428 321.21 143.066C318.685 140.286 320.151 136.012 319.581 132.566C313.078 140.765 302.969 146.009 292.442 145.647C279.599 146.499 266.641 140.812 258.474 130.861C241.944 110.715 242.642 78.0962 260.475 58.9779C274.818 43.7487 302.225 41.0159 317.406 56.3852C317.429 40.2334 317.313 24.0816 317.452 7.92974ZM296.967 75.667C292.803 76.1225 288.58 77.4188 285.392 80.2568C277.575 86.7502 276.552 99.2582 281.693 107.702C288.219 118.376 305.494 119.404 313.299 109.664C318.429 103.136 319.023 93.5706 315.696 86.0962C312.532 78.9838 304.493 75.1298 296.967 75.667Z" fill="#0085FF"/>
<path d="M633.542 5.29093C643.255 4.68363 651.522 4.99896 661.247 5.06903C663.539 4.73035 664.295 7.39312 664.237 9.21502C664.272 33.2851 664.167 57.3669 664.283 81.4369C672.101 71.5216 680.127 61.7698 687.956 51.8544C689.224 50.3946 690.597 48.3858 692.795 48.5727C703.509 48.6077 714.234 48.234 724.925 48.7829C725.471 50.3712 725.157 51.726 723.971 52.8588C713.815 64.8063 703.497 76.6136 693.295 88.5143C704.754 104.596 716.002 120.83 727.437 136.923C728.764 138.733 729.787 140.742 730.532 142.868C726.972 143.452 723.366 143.346 719.783 143.335C712.071 143.195 704.346 143.592 696.646 143.101C688.98 132.462 681.523 121.682 673.904 111.031C670.565 114.687 667.471 118.564 664.225 122.313C663.876 129.227 665.098 136.327 663.364 143.125C652.918 143.417 643.93 143.533 633.484 143.054C633.007 140.497 632.646 137.904 632.693 135.3C632.728 99.4924 632.693 63.6851 632.704 27.8661C632.972 20.345 631.983 12.7187 633.542 5.29093Z" fill="#0085FF"/>
<path d="M857.466 5.24399C867.877 4.81187 878.335 4.78852 888.734 5.26735C889.176 7.29946 889.642 9.35494 889.642 11.4571C889.642 47.3112 889.642 83.1652 889.642 119.019C889.281 127.008 890.479 135.159 888.769 143.031C879.137 143.498 869.447 143.521 859.827 143.031C859.129 139.586 858.862 136.082 858.699 132.578C852.313 141.045 841.831 146.056 831.257 145.659C820.416 146.243 809.423 142.272 801.501 134.786C790.834 124.94 785.669 110.038 786.064 95.6732C785.808 81.3199 791.241 66.5228 802.048 56.8644C811.621 48.0469 825.464 44.5666 838.155 46.879C845.182 47.825 851.731 51.2703 856.593 56.4323C856.64 41.4367 856.617 26.4411 856.605 11.4338C856.535 9.33158 856.966 7.27611 857.466 5.24399ZM835.375 75.7958C830.548 76.3214 825.825 78.4703 822.638 82.1958C816.088 89.9155 816.135 102.459 822.777 110.108C830.245 118.47 845.228 118.599 852.429 109.805C858.652 102.062 858.734 89.9272 852.522 82.1608C848.416 77.244 841.599 75.0951 835.375 75.7958Z" fill="#0085FF"/>
<path d="M0.303076 8.60777C4.26983 7.47492 8.41106 7.80193 12.4709 7.77857C31.502 7.79025 50.5214 7.80193 69.5525 7.76689C71.7162 7.73186 73.8566 8.07054 75.9738 8.4793C76.9858 13.326 76.6368 18.2895 76.6717 23.2063C76.6252 27.983 77.0789 32.853 75.7295 37.5012C61.7819 37.9917 47.811 37.6063 33.8518 37.7114C33.875 45.0224 33.8518 52.3333 33.875 59.6443C47.0898 59.9129 60.3627 59.072 73.5425 60.0881C74.1125 69.7114 74.1707 79.4282 73.5076 89.0282C60.3162 89.8341 47.0781 89.1801 33.875 89.3786C33.8169 106.301 33.9332 123.224 33.8169 140.146C33.6308 145.157 27.3491 142.786 24.1268 143.335C16.2166 143.148 8.2831 143.697 0.407769 142.984C0.140217 140.847 -0.0110074 138.698 0.000625319 136.549C0.0355234 98.3713 0.0122583 60.1815 0.0122583 22.0034C0.0471564 17.5304 -0.138967 13.0574 0.303076 8.60777Z" fill="#0085FF"/>
<path d="M189.514 48.3971C201.658 43.7256 216.688 46.5752 225.633 56.2686C232.927 63.8949 235.882 74.7562 235.905 85.1154C235.917 103.358 235.94 121.588 235.905 139.819C236.161 141.606 234.858 143.568 232.904 143.264C223.132 143.171 213.303 143.837 203.566 142.856C202.88 125.547 203.613 108.204 203.194 90.8964C202.903 85.8862 201.054 80.3854 196.447 77.8044C192.352 75.6555 187.269 75.7022 182.93 77.0803C176.916 79.2643 174.426 86.0964 174.38 92.0409C174.264 107.656 174.38 123.27 174.333 138.885C174.17 140.531 174.612 143.229 172.205 143.147C164.946 143.603 157.652 143.171 150.382 143.346C147.601 143.194 144.612 143.825 142.041 142.482C141.552 139.749 141.715 136.946 141.692 134.178C141.832 105.962 141.483 77.746 141.878 49.53C145.705 48.0117 149.87 48.6073 153.883 48.5139C159.758 48.6424 165.644 48.2803 171.495 48.6891C171.867 48.9577 172.588 49.5066 172.949 49.7752C173.67 53.9329 173.973 58.1489 174.357 62.3533C177.916 56.3737 182.907 50.9314 189.514 48.3971Z" fill="#0085FF"/>
<path d="M399.746 61.2212C404.725 53.9103 412.124 47.8256 421.104 46.6694C433.679 44.1118 446.987 50.5468 453.047 61.8402C462.912 45.0694 487.748 41.192 502.824 52.9059C512.723 60.7424 515.841 74.1147 515.713 86.214C515.527 105.087 516.085 123.983 515.422 142.845C511.083 143.592 506.674 143.277 502.3 143.323C495.995 143.148 489.644 143.767 483.385 142.856C482.722 125.326 483.432 107.761 483.025 90.2198C482.629 85.8286 481.559 80.9001 477.802 78.1322C474.149 75.6563 469.182 75.6213 465.157 77.0811C459.899 79.3585 458.236 85.5366 457.863 90.757C457.433 108.135 458.282 125.56 457.433 142.926C447.975 143.767 438.46 143.148 428.968 143.3C426.967 143.65 424.954 142.342 425.21 140.123C425.059 123.726 425.292 107.318 425.094 90.9205C425.001 85.7118 423.454 79.5103 418.289 77.1395C414.357 75.6329 409.471 75.6329 405.877 78.0154C401.491 81.157 400.212 86.8913 400.235 92.0067C400.165 107.236 400.247 122.477 400.212 137.706C400.223 139.54 399.758 141.315 399.374 143.102C390.626 143.615 381.867 143.137 373.119 143.382C371.363 143.265 369.629 143.113 367.908 142.891C367.687 140.754 367.559 138.605 367.57 136.468C367.594 108.789 367.582 81.1103 367.57 53.4315C367.617 51.5979 367.338 49.2271 369.641 48.7015C379.145 48.3278 388.695 48.5147 398.222 48.6431C399.7 52.6723 399.514 57.0052 399.746 61.2212Z" fill="#0085FF"/>
<path d="M920.272 50.4295C937.546 41.974 960.23 46.5054 972.572 61.4193C974.34 63.5682 972.2 65.8689 970.816 67.4806C967.035 71.6266 963.871 76.3565 959.613 80.047C953.309 76.52 947.329 70.7857 939.559 71.5565C936.883 71.3463 935.534 73.8222 934.254 75.7025C935.162 77.501 935.86 79.6266 937.709 80.7244C948.016 86.2018 960.428 88.0003 969.106 96.3507C976.621 103.451 978.819 115.013 975.492 124.672C972.503 134.4 963.615 141.186 954.111 143.837C936.255 148.684 915.142 144.573 902.695 130.149C900.578 128.316 901.473 125.104 902.997 123.2C905.952 119.019 908.837 114.78 911.954 110.716C912.932 109.291 915.072 109.606 916.363 110.447C922.773 114.313 929.485 118.809 937.267 118.809C939.57 118.751 942.746 118.867 943.968 116.415C945.712 113.752 943.572 110.505 941.001 109.408C931.067 104.14 918.922 102.517 910.896 94.0149C904.102 87.3813 902.462 76.8354 905.068 67.9361C907.22 60.193 913.187 53.9332 920.272 50.4295Z" fill="#0085FF"/>
<path d="M91.3878 50.1847C94.0749 47.7789 97.7625 48.6431 101.043 48.5147C108.104 48.6431 115.165 48.2928 122.203 48.6665C124.343 49.1453 124.564 51.6563 124.541 53.4665C124.541 78.8212 124.541 104.176 124.541 129.519C124.483 134.05 124.925 138.664 123.715 143.09C117.724 143.545 111.698 143.242 105.696 143.323C101.217 143.312 96.7388 143.429 92.2719 143.148C90.9574 139.516 91.4459 135.627 91.3762 131.855C91.3878 104.631 91.3878 77.4081 91.3878 50.1847Z" fill="#0085FF"/>
<path d="M518.66 49.9852C521.184 47.4276 525.151 48.8874 528.35 48.5137C536.132 49.0042 544.159 47.4626 551.767 49.5064C558.397 68.1575 565.179 86.7502 571.6 105.471C578.429 87.4977 584.582 69.2553 591.271 51.2349C591.911 48.759 594.761 48.3736 596.913 48.502C606.126 48.6305 615.351 48.3035 624.564 48.7239C624.552 50.4641 624.25 52.1458 623.633 53.7575C607.452 94.2597 591.283 134.762 575.16 175.276C574.462 177.004 573.531 178.616 572.543 180.181C562.178 180.251 551.767 180.683 541.425 179.936C541.658 178.417 542.042 176.934 542.577 175.498C546.892 164.8 551.708 154.277 555.838 143.509C547.02 120.747 537.644 98.1955 528.594 75.5152C525.36 66.978 521.382 58.6977 518.66 49.9852Z" fill="#0085FF"/>
<path d="M738.99 54.6576C739.118 52.4853 738.42 49.3905 741.235 48.6897C750.414 48.3394 759.638 48.5379 768.84 48.5846C770.98 48.4328 772.271 50.4182 771.981 52.3919C772.039 80.0357 771.957 107.68 772.016 135.323C772.039 137.869 771.922 140.427 771.597 142.95C760.871 143.522 750.041 143.65 739.339 142.88C738.572 113.496 739.258 84.0532 738.99 54.6576Z" fill="#0085FF"/>
</svg>
